<svg width="167" height="177" viewBox="0 0 167 177" fill="none" xmlns="http://www.w3.org/2000/svg">
<path d="M88.542 160.245C110.768 143.568 142.842 117.459 156.208 96.578C166.209 80.978 169.463 61.651 165.113 43.681C155.819 2.74703 104.353 -13.9796 72.295 13.4519C70.492 14.9845 68.83 16.6835 67.124 18.4281C66.428 19.1401 65.724 19.8596 65 20.5785C64.276 19.8596 63.572 19.14 62.876 18.428C61.17 16.6835 59.508 14.9845 57.705 13.4519C25.647 -13.9796 -25.8189 2.74703 -35.113 43.681C-39.463 61.651 -36.2093 80.978 -26.2079 96.578C-12.8421 117.459 19.232 143.568 41.458 160.245C47.651 164.893 65 177 65 177C65 177 82.349 164.893 88.542 160.245Z" fill="#960500"/>
</svg>
