<svg width="54" height="54" viewBox="0 0 54 54" fill="none" xmlns="http://www.w3.org/2000/svg">
<path d="M45.8001 8.09333C43.355 5.62428 40.4429 3.66658 37.2335 2.3343C34.0241 1.00202 30.5817 0.321822 27.1068 0.333335C12.5468 0.333335 0.680131 12.2 0.680131 26.76C0.680131 31.4267 1.9068 35.96 4.20013 39.96L0.466797 53.6667L14.4668 49.9867C18.3335 52.0933 22.6801 53.2133 27.1068 53.2133C41.6668 53.2133 53.5335 41.3467 53.5335 26.7867C53.5335 19.72 50.7868 13.08 45.8001 8.09333ZM27.1068 48.7333C23.1601 48.7333 19.2935 47.6667 15.9068 45.6667L15.1068 45.1867L6.7868 47.3733L9.00013 39.2667L8.4668 38.44C6.27359 34.9388 5.10926 30.8914 5.1068 26.76C5.1068 14.6533 14.9735 4.78667 27.0801 4.78667C32.9468 4.78667 38.4668 7.08 42.6001 11.24C44.6471 13.277 46.2692 15.7001 47.3725 18.3689C48.4757 21.0376 49.038 23.8989 49.0268 26.7867C49.0801 38.8933 39.2135 48.7333 27.1068 48.7333ZM39.1601 32.3067C38.4935 31.9867 35.2401 30.3867 34.6535 30.1467C34.0401 29.9333 33.6135 29.8267 33.1601 30.4667C32.7068 31.1333 31.4535 32.6267 31.0801 33.0533C30.7068 33.5067 30.3068 33.56 29.6401 33.2133C28.9735 32.8933 26.8401 32.1733 24.3335 29.9333C22.3601 28.1733 21.0535 26.0133 20.6535 25.3467C20.2801 24.68 20.6001 24.3333 20.9468 23.9867C21.2401 23.6933 21.6135 23.2133 21.9335 22.84C22.2535 22.4667 22.3868 22.1733 22.6001 21.7467C22.8135 21.2933 22.7068 20.92 22.5468 20.6C22.3868 20.28 21.0535 17.0267 20.5201 15.6933C19.9868 14.4133 19.4268 14.5733 19.0268 14.5467H17.7468C17.2935 14.5467 16.6001 14.7067 15.9868 15.3733C15.4001 16.04 13.6935 17.64 13.6935 20.8933C13.6935 24.1467 16.0668 27.2933 16.3868 27.72C16.7068 28.1733 21.0535 34.84 27.6668 37.6933C29.2401 38.3867 30.4668 38.7867 31.4268 39.08C33.0001 39.5867 34.4401 39.5067 35.5868 39.3467C36.8668 39.16 39.5068 37.7467 40.0401 36.2C40.6001 34.6533 40.6001 33.3467 40.4135 33.0533C40.2268 32.76 39.8268 32.6267 39.1601 32.3067Z" fill="#E4E4E4"/>
</svg>
