<svg width="295" height="118" viewBox="0 0 295 118" fill="none" xmlns="http://www.w3.org/2000/svg">
<path d="M19.8 0.639998L1.48 43.2L0 42.56L18.32 -4.76837e-07L19.8 0.639998ZM29.6047 0.639998L11.2847 43.2L9.80469 42.56L28.1247 -4.76837e-07L29.6047 0.639998ZM44.0094 32V23.8H36.2094V32H30.6094V11.2H36.2094V19.4H44.0094V11.2H49.6094V32H44.0094ZM57.425 17.6H51.825C52.145 12.28 56.425 10.6 61.225 10.6C66.225 10.6 70.225 12.4 70.225 17.8V32H64.625V28H64.425C64.425 28 63.145 32.6 57.825 32.6C54.025 32.6 51.225 30.84 51.225 27C51.225 23.12 54.425 21.36 57.865 20.48C61.345 19.6 64.625 19.32 64.625 17C64.625 15.36 63.425 14.4 61.225 14.4C58.825 14.4 57.505 15.36 57.425 17.6ZM64.625 21.52C63.705 22.36 61.825 22.8 60.225 23.2C58.425 23.64 56.905 24.56 56.905 26.4C56.905 28 58.025 29 59.825 29C63.625 29 64.625 24.6 64.625 21.52ZM93.0109 11.2V29.6C93.0109 35.6 89.8109 39.8 82.6109 39.8C73.0109 39.8 72.8109 32.6 72.8109 32.6H78.4109C78.4109 32.6 78.6109 35.6 82.6109 35.6C86.1709 35.6 87.4109 33.6 87.4109 30V29H87.2109C87.2109 29 85.4109 31.8 81.0109 31.8C75.0109 31.8 72.0109 26.6 72.0109 21.2C72.0109 15.8 75.0109 10.6 81.0109 10.6C85.6109 10.6 87.4109 14 87.4109 14H87.6109V11.2H93.0109ZM87.6109 21.2C87.6109 17.84 86.0109 14.8 82.6109 14.8C79.2109 14.8 77.6109 17.84 77.6109 21.2C77.6109 24.56 79.2109 27.6 82.6109 27.6C86.0109 27.6 87.6109 24.56 87.6109 21.2ZM100.823 17.6H95.2234C95.5434 12.28 99.8234 10.6 104.623 10.6C109.623 10.6 113.623 12.4 113.623 17.8V32H108.023V28H107.823C107.823 28 106.543 32.6 101.223 32.6C97.4234 32.6 94.6234 30.84 94.6234 27C94.6234 23.12 97.8234 21.36 101.263 20.48C104.743 19.6 108.023 19.32 108.023 17C108.023 15.36 106.823 14.4 104.623 14.4C102.223 14.4 100.903 15.36 100.823 17.6ZM108.023 21.52C107.103 22.36 105.223 22.8 103.623 23.2C101.823 23.64 100.303 24.56 100.303 26.4C100.303 28 101.423 29 103.223 29C107.023 29 108.023 24.6 108.023 21.52ZM117.609 9.2V7.6H133.009V9.2H117.609ZM135.009 11.2V32H129.609V28.6H129.409C129.409 28.6 127.609 32.6 123.009 32.6C117.209 32.6 115.609 28.8 115.609 24V11.2H121.209V22.8C121.209 26.4 122.209 28 124.809 28C127.809 28 129.409 26.2 129.409 22V11.2H135.009ZM149.216 32V20.4C149.216 16.8 148.496 15.2 146.296 15.2C143.896 15.2 142.616 17 142.616 21.2V32H137.016V11.2H142.416V14.6H142.616C142.616 14.6 144.016 10.6 148.216 10.6C151.576 10.6 153.376 12.2 154.176 14.64L154.216 14.6H154.416C154.416 14.6 156.216 10.6 160.416 10.6C165.616 10.6 167.016 14.4 167.016 19.2V32H161.416V20.4C161.416 16.8 160.696 15.2 158.496 15.2C156.096 15.2 154.816 17 154.816 21.2V32H149.216ZM168.808 21.6C168.808 15.52 172.368 10.6 179.208 10.6C186.048 10.6 189.208 15.52 189.208 21.6C189.208 22.08 189.168 22.8 189.168 22.8H174.448C174.688 26 176.048 28.4 179.408 28.4C182.808 28.4 183.408 25.2 183.408 25.2H189.008C189.008 25.2 187.808 32.6 179.208 32.6C172.208 32.6 168.808 27.68 168.808 21.6ZM179.208 14.8C176.448 14.8 175.088 16.64 174.608 19.2H183.448C183.088 16.64 181.968 14.8 179.208 14.8ZM1 71V50.2H6.4V53.6H6.6C6.6 53.6 8.4 49.6 13 49.6C18.8 49.6 20.4 53.4 20.4 58.2V71H14.8V59.4C14.8 55.8 13.8 54.2 11.2 54.2C8.2 54.2 6.6 56 6.6 60.2V71H1ZM28.0063 50.2V71H22.4063V50.2H28.0063ZM22.0063 45.6C22.0063 43.84 23.4463 42.4 25.2063 42.4C26.9663 42.4 28.4063 43.84 28.4063 45.6C28.4063 47.36 26.9663 48.8 25.2063 48.8C23.4463 48.8 22.0063 47.36 22.0063 45.6ZM50.8234 50.2V68.6C50.8234 74.6 47.6234 78.8 40.4234 78.8C30.8234 78.8 30.6234 71.6 30.6234 71.6H36.2234C36.2234 71.6 36.4234 74.6 40.4234 74.6C43.9834 74.6 45.2234 72.6 45.2234 69V68H45.0234C45.0234 68 43.2234 70.8 38.8234 70.8C32.8234 70.8 29.8234 65.6 29.8234 60.2C29.8234 54.8 32.8234 49.6 38.8234 49.6C43.4234 49.6 45.2234 53 45.2234 53H45.4234V50.2H50.8234ZM45.4234 60.2C45.4234 56.84 43.8234 53.8 40.4234 53.8C37.0234 53.8 35.4234 56.84 35.4234 60.2C35.4234 63.56 37.0234 66.6 40.4234 66.6C43.8234 66.6 45.4234 63.56 45.4234 60.2ZM65.0359 71V59.4C65.0359 55.8 64.3159 54.2 62.1159 54.2C59.7159 54.2 58.4359 56 58.4359 60.2V71H52.8359V50.2H58.2359V53.6H58.4359C58.4359 53.6 59.8359 49.6 64.0359 49.6C67.3959 49.6 69.1959 51.2 69.9959 53.64L70.0359 53.6H70.2359C70.2359 53.6 72.0359 49.6 76.2359 49.6C81.4359 49.6 82.8359 53.4 82.8359 58.2V71H77.2359V59.4C77.2359 55.8 76.5159 54.2 74.3159 54.2C71.9159 54.2 70.6359 56 70.6359 60.2V71H65.0359ZM84.8281 71V50.2H94.8281C100.228 50.2 103.028 52 103.028 55.8C103.028 59.2 99.8281 60 99.8281 60V60.2C99.8281 60.2 103.628 61 103.628 65C103.628 69 101.028 71 95.4281 71H84.8281ZM94.8281 62.2H90.4281V67H95.2281C97.0281 67 98.0281 66.2 98.0281 64.6C98.0281 63 96.8281 62.2 94.8281 62.2ZM90.4281 58.6H94.4281C96.4281 58.6 97.4281 57.8 97.4281 56.4C97.4281 55 96.6281 54.2 94.8281 54.2H90.4281V58.6ZM104.823 60.6C104.823 54.52 108.383 49.6 115.223 49.6C122.063 49.6 125.223 54.52 125.223 60.6C125.223 61.08 125.183 61.8 125.183 61.8H110.463C110.703 65 112.063 67.4 115.423 67.4C118.823 67.4 119.423 64.2 119.423 64.2H125.023C125.023 64.2 123.823 71.6 115.223 71.6C108.223 71.6 104.823 66.68 104.823 60.6ZM115.223 53.8C112.463 53.8 111.103 55.64 110.623 58.2H119.463C119.103 55.64 117.983 53.8 115.223 53.8ZM127.016 78.2V50.2H132.416V53H132.616C132.616 53 134.416 49.6 139.016 49.6C145.016 49.6 148.016 54.8 148.016 60.6C148.016 66.4 145.016 71.6 139.016 71.6C134.616 71.6 132.816 68.8 132.816 68.8H132.616V78.2H127.016ZM132.416 60.6C132.416 64.36 134.016 67.4 137.416 67.4C140.816 67.4 142.416 64.36 142.416 60.6C142.416 56.84 140.816 53.8 137.416 53.8C134.016 53.8 132.416 56.84 132.416 60.6ZM170.628 50.2V68.6C170.628 74.6 167.428 78.8 160.228 78.8C150.628 78.8 150.428 71.6 150.428 71.6H156.028C156.028 71.6 156.228 74.6 160.228 74.6C163.788 74.6 165.028 72.6 165.028 69V68H164.828C164.828 68 163.028 70.8 158.628 70.8C152.628 70.8 149.628 65.6 149.628 60.2C149.628 54.8 152.628 49.6 158.628 49.6C163.228 49.6 165.028 53 165.028 53H165.228V50.2H170.628ZM165.228 60.2C165.228 56.84 163.628 53.8 160.228 53.8C156.828 53.8 155.228 56.84 155.228 60.2C155.228 63.56 156.828 66.6 160.228 66.6C163.628 66.6 165.228 63.56 165.228 60.2ZM191.841 50.2V58.48L198.841 50.2H205.441L197.761 58.44L205.841 71H199.001L193.921 62.56L191.841 64.8V71H186.241V64.8L184.121 62.56L179.081 71H172.241L180.321 58.44L172.641 50.2H179.241L186.241 58.48V50.2H191.841ZM205.058 60.6C205.058 54.52 208.618 49.6 215.458 49.6C222.298 49.6 225.458 54.52 225.458 60.6C225.458 61.08 225.418 61.8 225.418 61.8H210.698C210.938 65 212.298 67.4 215.658 67.4C219.058 67.4 219.658 64.2 219.658 64.2H225.258C225.258 64.2 224.058 71.6 215.458 71.6C208.458 71.6 205.058 66.68 205.058 60.6ZM215.458 53.8C212.698 53.8 211.338 55.64 210.858 58.2H219.698C219.338 55.64 218.218 53.8 215.458 53.8ZM240.65 71V62.8H232.85V71H227.25V50.2H232.85V58.4H240.65V50.2H246.25V71H240.65ZM261.666 71V62.8H253.866V71H248.266V50.2H253.866V58.4H261.666V50.2H267.266V71H261.666ZM287.881 50.2V71H282.281V63.4H278.281L274.961 71H268.681L272.921 62.4C270.521 61.28 269.281 59.32 269.281 56.8C269.281 52.8 272.481 50.2 278.281 50.2H287.881ZM279.081 59.4H282.281V54.2H279.081C276.081 54.2 274.881 55 274.881 56.8C274.881 58.6 276.081 59.4 279.081 59.4ZM1 110V89.2H11C16.4 89.2 19.2 91 19.2 94.8C19.2 98.2 16 99 16 99V99.2C16 99.2 19.8 100 19.8 104C19.8 108 17.2 110 11.6 110H1ZM11 101.2H6.6V106H11.4C13.2 106 14.2 105.2 14.2 103.6C14.2 102 13 101.2 11 101.2ZM6.6 97.6H10.6C12.6 97.6 13.6 96.8 13.6 95.4C13.6 94 12.8 93.2 11 93.2H6.6V97.6ZM27.1906 95.6H21.5906C21.9106 90.28 26.1906 88.6 30.9906 88.6C35.9906 88.6 39.9906 90.4 39.9906 95.8V110H34.3906V106H34.1906C34.1906 106 32.9106 110.6 27.5906 110.6C23.7906 110.6 20.9906 108.84 20.9906 105C20.9906 101.12 24.1906 99.36 27.6306 98.48C31.1106 97.6 34.3906 97.32 34.3906 95C34.3906 93.36 33.1906 92.4 30.9906 92.4C28.5906 92.4 27.2706 93.36 27.1906 95.6ZM34.3906 99.52C33.4706 100.36 31.5906 100.8 29.9906 101.2C28.1906 101.64 26.6706 102.56 26.6706 104.4C26.6706 106 27.7906 107 29.5906 107C33.3906 107 34.3906 102.6 34.3906 99.52ZM59.7766 89.2V100.8C59.7766 104.4 60.4966 106 62.6966 106C65.0966 106 66.3766 104.2 66.3766 100V89.2H71.9766V110H66.5766V106.6H66.3766C66.3766 106.6 64.9766 110.6 60.7766 110.6C57.4166 110.6 55.6566 109.04 54.8166 106.6H54.5766C54.5766 106.6 52.7766 110.6 48.5766 110.6C43.3766 110.6 41.9766 106.8 41.9766 102V89.2H47.5766V100.8C47.5766 104.4 48.2966 106 50.4966 106C52.8966 106 54.1766 104.2 54.1766 100V89.2H59.7766ZM79.3688 99.6C79.3688 103.36 80.8088 106.4 84.3688 106.4C87.9288 106.4 89.3688 103.36 89.3688 99.6C89.3688 95.84 87.9288 92.8 84.3688 92.8C80.8088 92.8 79.3688 95.84 79.3688 99.6ZM73.7688 99.6C73.7688 93.52 77.5288 88.6 84.3688 88.6C91.2088 88.6 94.9688 93.52 94.9688 99.6C94.9688 105.68 91.2088 110.6 84.3688 110.6C77.5288 110.6 73.7688 105.68 73.7688 99.6ZM121.981 89.2V110H116.781V95.4H116.581L111.981 110H106.781L102.181 95.4H101.981V110H96.7813V89.2H105.181L109.381 103.6L113.581 89.2H121.981ZM144.569 89.2L137.169 110.6C135.529 115.36 133.369 117.8 129.169 117.8C127.169 117.8 125.569 117.2 125.569 117.2V112.6C125.569 112.6 126.769 113 128.169 113C130.169 113 130.969 111.92 131.769 110L123.369 89.2H129.369L134.449 102.92L138.569 89.2H144.569ZM176.37 89.2V107.6C176.37 113.6 173.17 117.8 165.97 117.8C156.37 117.8 156.17 110.6 156.17 110.6H161.77C161.77 110.6 161.97 113.6 165.97 113.6C169.53 113.6 170.77 111.6 170.77 108V107H170.57C170.57 107 168.77 109.8 164.37 109.8C158.37 109.8 155.37 104.6 155.37 99.2C155.37 93.8 158.37 88.6 164.37 88.6C168.97 88.6 170.77 92 170.77 92H170.97V89.2H176.37ZM170.97 99.2C170.97 95.84 169.37 92.8 165.97 92.8C162.57 92.8 160.97 95.84 160.97 99.2C160.97 102.56 162.57 105.6 165.97 105.6C169.37 105.6 170.97 102.56 170.97 99.2ZM183.783 99.6C183.783 103.36 185.223 106.4 188.783 106.4C192.343 106.4 193.783 103.36 193.783 99.6C193.783 95.84 192.343 92.8 188.783 92.8C185.223 92.8 183.783 95.84 183.783 99.6ZM178.183 99.6C178.183 93.52 181.943 88.6 188.783 88.6C195.623 88.6 199.383 93.52 199.383 99.6C199.383 105.68 195.623 110.6 188.783 110.6C181.943 110.6 178.183 105.68 178.183 99.6ZM214.595 110V101.8H206.795V110H201.195V89.2H206.795V97.4H214.595V89.2H220.195V110H214.595ZM228.011 95.6H222.411C222.731 90.28 227.011 88.6 231.811 88.6C236.811 88.6 240.811 90.4 240.811 95.8V110H235.211V106H235.011C235.011 106 233.731 110.6 228.411 110.6C224.611 110.6 221.811 108.84 221.811 105C221.811 101.12 225.011 99.36 228.451 98.48C231.931 97.6 235.211 97.32 235.211 95C235.211 93.36 234.011 92.4 231.811 92.4C229.411 92.4 228.091 93.36 228.011 95.6ZM235.211 99.52C234.291 100.36 232.411 100.8 230.811 101.2C229.011 101.64 227.491 102.56 227.491 104.4C227.491 106 228.611 107 230.411 107C234.211 107 235.211 102.6 235.211 99.52ZM254.997 110V98.4C254.997 94.8 254.277 93.2 252.077 93.2C249.677 93.2 248.397 95 248.397 99.2V110H242.797V89.2H248.197V92.6H248.397C248.397 92.6 249.797 88.6 253.997 88.6C257.357 88.6 259.157 90.2 259.957 92.64L259.997 92.6H260.197C260.197 92.6 261.997 88.6 266.197 88.6C271.397 88.6 272.797 92.4 272.797 97.2V110H267.197V98.4C267.197 94.8 266.477 93.2 264.277 93.2C261.877 93.2 260.597 95 260.597 99.2V110H254.997ZM294.803 89.2L287.403 110.6C285.763 115.36 283.603 117.8 279.403 117.8C277.403 117.8 275.803 117.2 275.803 117.2V112.6C275.803 112.6 277.003 113 278.403 113C280.403 113 281.203 111.92 282.003 110L273.603 89.2H279.603L284.683 102.92L288.803 89.2H294.803Z" fill="white"/>
</svg>
