<svg width="299" height="118" viewBox="0 0 299 118" fill="none" xmlns="http://www.w3.org/2000/svg">
<path d="M19.8 0.639998L1.48 43.2L0 42.56L18.32 -4.76837e-07L19.8 0.639998ZM29.6047 0.639998L11.2847 43.2L9.80469 42.56L28.1247 -4.76837e-07L29.6047 0.639998ZM34.7984 21.6C34.7984 25.36 36.2384 28.4 39.7984 28.4C43.3584 28.4 44.7984 25.36 44.7984 21.6C44.7984 17.84 43.3584 14.8 39.7984 14.8C36.2384 14.8 34.7984 17.84 34.7984 21.6ZM29.1984 21.6C29.1984 15.52 32.9584 10.6 39.7984 10.6C46.6384 10.6 50.3984 15.52 50.3984 21.6C50.3984 27.68 46.6384 32.6 39.7984 32.6C32.9584 32.6 29.1984 27.68 29.1984 21.6ZM57.8109 22.2C57.8109 25.56 59.2509 28.4 62.8109 28.4C66.3709 28.4 67.8109 25.56 67.8109 22.2C67.8109 18.84 66.3709 16 62.8109 16C59.2509 16 57.8109 18.84 57.8109 22.2ZM62.8109 32.6C57.2109 32.6 52.0109 29.4 52.0109 19.4C52.0109 6 58.3709 4 64.1709 4H71.8109V8.6H63.6909C59.1709 8.6 57.4909 10.6 56.8109 15H57.0109C57.0109 15 58.8109 11.8 63.6109 11.8C69.8109 11.8 73.4109 16.4 73.4109 22.2C73.4109 27.8 69.8109 32.6 62.8109 32.6ZM75.0188 21.6C75.0188 15.52 78.5788 10.6 85.4188 10.6C92.2588 10.6 95.4188 15.52 95.4188 21.6C95.4188 22.08 95.3788 22.8 95.3788 22.8H80.6588C80.8988 26 82.2588 28.4 85.6188 28.4C89.0188 28.4 89.6188 25.2 89.6188 25.2H95.2188C95.2188 25.2 94.0188 32.6 85.4188 32.6C78.4188 32.6 75.0188 27.68 75.0188 21.6ZM85.4188 14.8C82.6588 14.8 81.2988 16.64 80.8188 19.2H89.6588C89.2988 16.64 88.1788 14.8 85.4188 14.8ZM97.2109 39.2V11.2H102.611V14H102.811C102.811 14 104.611 10.6 109.211 10.6C115.211 10.6 118.211 15.8 118.211 21.6C118.211 27.4 115.211 32.6 109.211 32.6C104.811 32.6 103.011 29.8 103.011 29.8H102.811V39.2H97.2109ZM102.611 21.6C102.611 25.36 104.211 28.4 107.611 28.4C111.011 28.4 112.611 25.36 112.611 21.6C112.611 17.84 111.011 14.8 107.611 14.8C104.211 14.8 102.611 17.84 102.611 21.6ZM125.623 11.2V32H120.023V11.2H125.623ZM119.623 6.6C119.623 4.84 121.063 3.4 122.823 3.4C124.583 3.4 126.023 4.84 126.023 6.6C126.023 8.36 124.583 9.8 122.823 9.8C121.063 9.8 119.623 8.36 119.623 6.6ZM139.841 32V20.4C139.841 16.8 139.121 15.2 136.921 15.2C134.521 15.2 133.241 17 133.241 21.2V32H127.641V11.2H133.041V14.6H133.241C133.241 14.6 134.641 10.6 138.841 10.6C142.201 10.6 144.001 12.2 144.801 14.64L144.841 14.6H145.041C145.041 14.6 146.841 10.6 151.041 10.6C156.241 10.6 157.641 14.4 157.641 19.2V32H152.041V20.4C152.041 16.8 151.321 15.2 149.121 15.2C146.721 15.2 145.441 17 145.441 21.2V32H139.841ZM159.633 32V11.2H165.233V18.8H168.633C174.433 18.8 177.633 21.4 177.633 25.4C177.633 29.4 174.433 32 168.633 32H159.633ZM167.833 22.8H165.233V28H167.833C170.833 28 172.033 27.2 172.033 25.4C172.033 23.6 170.833 22.8 167.833 22.8ZM209.652 11.2V29.6C209.652 35.6 206.452 39.8 199.252 39.8C189.652 39.8 189.452 32.6 189.452 32.6H195.052C195.052 32.6 195.252 35.6 199.252 35.6C202.812 35.6 204.052 33.6 204.052 30V29H203.852C203.852 29 202.052 31.8 197.652 31.8C191.652 31.8 188.652 26.6 188.652 21.2C188.652 15.8 191.652 10.6 197.652 10.6C202.252 10.6 204.052 14 204.052 14H204.252V11.2H209.652ZM204.252 21.2C204.252 17.84 202.652 14.8 199.252 14.8C195.852 14.8 194.252 17.84 194.252 21.2C194.252 24.56 195.852 27.6 199.252 27.6C202.652 27.6 204.252 24.56 204.252 21.2ZM217.464 17.6H211.864C212.184 12.28 216.464 10.6 221.264 10.6C226.264 10.6 230.264 12.4 230.264 17.8V32H224.664V28H224.464C224.464 28 223.184 32.6 217.864 32.6C214.064 32.6 211.264 30.84 211.264 27C211.264 23.12 214.464 21.36 217.904 20.48C221.384 19.6 224.664 19.32 224.664 17C224.664 15.36 223.464 14.4 221.264 14.4C218.864 14.4 217.544 15.36 217.464 17.6ZM224.664 21.52C223.744 22.36 221.864 22.8 220.264 23.2C218.464 23.64 216.944 24.56 216.944 26.4C216.944 28 218.064 29 219.864 29C223.664 29 224.664 24.6 224.664 21.52ZM244.45 32V20.4C244.45 16.8 243.73 15.2 241.53 15.2C239.13 15.2 237.85 17 237.85 21.2V32H232.25V11.2H237.65V14.6H237.85C237.85 14.6 239.25 10.6 243.45 10.6C246.81 10.6 248.61 12.2 249.41 14.64L249.45 14.6H249.65C249.65 14.6 251.45 10.6 255.65 10.6C260.85 10.6 262.25 14.4 262.25 19.2V32H256.65V20.4C256.65 16.8 255.93 15.2 253.73 15.2C251.33 15.2 250.05 17 250.05 21.2V32H244.45ZM284.256 11.2L276.856 32.6C275.216 37.36 273.056 39.8 268.856 39.8C266.856 39.8 265.256 39.2 265.256 39.2V34.6C265.256 34.6 266.456 35 267.856 35C269.856 35 270.656 33.92 271.456 32L263.056 11.2H269.056L274.136 24.92L278.256 11.2H284.256ZM282.645 29.2C282.645 27.44 284.085 26 286.045 26C288.245 26 289.845 27.8 289.845 30.8C289.845 35.6 287.245 38.4 283.045 38.4V36.8C285.445 36.8 287.845 35.4 287.845 32C287.845 32 287.045 32.4 285.845 32.4C284.085 32.4 282.645 30.96 282.645 29.2ZM24.0094 71V62.8H16.2094V71H10.6094V50.2H16.2094V58.4H24.0094V50.2H29.6094V71H24.0094ZM37.425 56.6H31.825C32.145 51.28 36.425 49.6 41.225 49.6C46.225 49.6 50.225 51.4 50.225 56.8V71H44.625V67H44.425C44.425 67 43.145 71.6 37.825 71.6C34.025 71.6 31.225 69.84 31.225 66C31.225 62.12 34.425 60.36 37.865 59.48C41.345 58.6 44.625 58.32 44.625 56C44.625 54.36 43.425 53.4 41.225 53.4C38.825 53.4 37.505 54.36 37.425 56.6ZM44.625 60.52C43.705 61.36 41.825 61.8 40.225 62.2C38.425 62.64 36.905 63.56 36.905 65.4C36.905 67 38.025 68 39.825 68C43.625 68 44.625 63.6 44.625 60.52ZM80.4203 50.2V71H74.8203V63.4H70.8203L67.5003 71H61.2203L65.4603 62.4C63.0603 61.28 61.8203 59.32 61.8203 56.8C61.8203 52.8 65.0203 50.2 70.8203 50.2H80.4203ZM71.6203 59.4H74.8203V54.2H71.6203C68.6203 54.2 67.4203 55 67.4203 56.8C67.4203 58.6 68.6203 59.4 71.6203 59.4ZM82.4063 71V50.2H88.0063V58.6L95.4063 50.2H102.006L94.1663 58.32L102.406 71H95.5663L90.2863 62.32L88.0063 64.68V71H82.4063ZM123.397 50.2L115.997 71.6C114.357 76.36 112.197 78.8 107.997 78.8C105.997 78.8 104.397 78.2 104.397 78.2V73.6C104.397 73.6 105.597 74 106.997 74C108.997 74 109.797 72.92 110.597 71L102.197 50.2H108.197L113.277 63.92L117.397 50.2H123.397ZM140.998 50.2L144.798 56.2L148.598 50.2H155.198L147.998 60.2L155.798 71H149.198L144.798 64.2L140.398 71H133.798L141.598 60.2L134.398 50.2H140.998ZM160.619 60.6C160.619 64.36 162.059 67.4 165.619 67.4C169.179 67.4 170.619 64.36 170.619 60.6C170.619 56.84 169.179 53.8 165.619 53.8C162.059 53.8 160.619 56.84 160.619 60.6ZM155.019 60.6C155.019 54.52 158.779 49.6 165.619 49.6C172.459 49.6 176.219 54.52 176.219 60.6C176.219 66.68 172.459 71.6 165.619 71.6C158.779 71.6 155.019 66.68 155.019 60.6ZM196.231 50.2V71H190.631V63H185.231C179.431 63 177.831 61.6 177.831 57V50.2H183.431V56.4C183.431 59 184.231 59 186.631 59H190.631V50.2H196.231ZM198.027 60.6C198.027 54.52 201.587 49.6 208.427 49.6C215.267 49.6 218.427 54.52 218.427 60.6C218.427 61.08 218.387 61.8 218.387 61.8H203.667C203.907 65 205.267 67.4 208.627 67.4C212.027 67.4 212.627 64.2 212.627 64.2H218.227C218.227 64.2 217.027 71.6 208.427 71.6C201.427 71.6 198.027 66.68 198.027 60.6ZM208.427 53.8C205.667 53.8 204.307 55.64 203.827 58.2H212.667C212.307 55.64 211.187 53.8 208.427 53.8ZM232.419 71V59.4C232.419 55.8 231.699 54.2 229.499 54.2C227.099 54.2 225.819 56 225.819 60.2V71H220.219V50.2H225.619V53.6H225.819C225.819 53.6 227.219 49.6 231.419 49.6C234.779 49.6 236.579 51.2 237.379 53.64L237.419 53.6H237.619C237.619 53.6 239.419 49.6 243.619 49.6C248.819 49.6 250.219 53.4 250.219 58.2V71H244.619V59.4C244.619 55.8 243.899 54.2 241.699 54.2C239.299 54.2 238.019 56 238.019 60.2V71H232.419ZM252.011 60.6C252.011 54.52 255.571 49.6 262.411 49.6C269.251 49.6 272.411 54.52 272.411 60.6C272.411 61.08 272.371 61.8 272.371 61.8H257.651C257.891 65 259.251 67.4 262.611 67.4C266.011 67.4 266.611 64.2 266.611 64.2H272.211C272.211 64.2 271.011 71.6 262.411 71.6C255.411 71.6 252.011 66.68 252.011 60.6ZM262.411 53.8C259.651 53.8 258.291 55.64 257.811 58.2H266.651C266.291 55.64 265.171 53.8 262.411 53.8ZM1 93.6V89.2H20.2V93.6L13.4 100C13.4 100 21 100.2 21 108.6C21 113.2 17.8 117.8 11 117.8C3.2 117.8 0.4 113.2 0.4 108.4H6C6 111.2 7.4 113.6 11 113.6C13.76 113.6 15.4 111.6 15.4 108.8C15.4 105.8 14 103.6 8.4 103.6H6.8V100.4L13.8 93.6H1ZM28.2063 95.6H22.6063C22.9263 90.28 27.2063 88.6 32.0063 88.6C37.0063 88.6 41.0063 90.4 41.0063 95.8V110H35.4063V106H35.2063C35.2063 106 33.9263 110.6 28.6063 110.6C24.8063 110.6 22.0063 108.84 22.0063 105C22.0063 101.12 25.2063 99.36 28.6463 98.48C32.1263 97.6 35.4063 97.32 35.4063 95C35.4063 93.36 34.2063 92.4 32.0063 92.4C29.6063 92.4 28.2863 93.36 28.2063 95.6ZM35.4063 99.52C34.4863 100.36 32.6063 100.8 31.0063 101.2C29.2063 101.64 27.6863 102.56 27.6863 104.4C27.6863 106 28.8063 107 30.6063 107C34.4063 107 35.4063 102.6 35.4063 99.52ZM68.1922 89.2V110H62.9922V95.4H62.7922L58.1922 110H52.9922L48.3922 95.4H48.1922V110H42.9922V89.2H51.3922L55.5922 103.6L59.7922 89.2H68.1922ZM75.5797 99.6C75.5797 103.36 77.0197 106.4 80.5797 106.4C84.1397 106.4 85.5797 103.36 85.5797 99.6C85.5797 95.84 84.1397 92.8 80.5797 92.8C77.0197 92.8 75.5797 95.84 75.5797 99.6ZM69.9797 99.6C69.9797 93.52 73.7397 88.6 80.5797 88.6C87.4197 88.6 91.1797 93.52 91.1797 99.6C91.1797 105.68 87.4197 110.6 80.5797 110.6C73.7397 110.6 69.9797 105.68 69.9797 99.6ZM92.9922 110V89.2H102.992C108.392 89.2 111.192 91 111.192 94.8C111.192 98.2 107.992 99 107.992 99V99.2C107.992 99.2 111.792 100 111.792 104C111.792 108 109.192 110 103.592 110H92.9922ZM102.992 101.2H98.5922V106H103.392C105.192 106 106.192 105.2 106.192 103.6C106.192 102 104.992 101.2 102.992 101.2ZM98.5922 97.6H102.592C104.592 97.6 105.592 96.8 105.592 95.4C105.592 94 104.792 93.2 102.992 93.2H98.5922V97.6ZM132.783 89.2V110H127.383V106.6H127.183C127.183 106.6 125.383 110.6 120.783 110.6C114.983 110.6 113.383 106.8 113.383 102V89.2H118.983V100.8C118.983 104.4 119.983 106 122.583 106C125.583 106 127.183 104.2 127.183 100V89.2H132.783ZM146.989 110V98.4C146.989 94.8 146.269 93.2 144.069 93.2C141.669 93.2 140.389 95 140.389 99.2V110H134.789V89.2H140.189V92.6H140.389C140.389 92.6 141.789 88.6 145.989 88.6C149.349 88.6 151.149 90.2 151.949 92.64L151.989 92.6H152.189C152.189 92.6 153.989 88.6 158.189 88.6C163.389 88.6 164.789 92.4 164.789 97.2V110H159.189V98.4C159.189 94.8 158.469 93.2 156.269 93.2C153.869 93.2 152.589 95 152.589 99.2V110H146.989ZM186.181 89.2V110H180.781V106.6H180.581C180.581 106.6 178.781 110.6 174.181 110.6C168.381 110.6 166.781 106.8 166.781 102V89.2H172.381V100.8C172.381 104.4 173.381 106 175.981 106C178.981 106 180.581 104.2 180.581 100V89.2H186.181ZM197.797 110V89.2H203.197V92.6H203.397C203.397 92.6 205.197 88.6 209.797 88.6C215.597 88.6 217.197 92.4 217.197 97.2V110H211.597V98.4C211.597 94.8 210.597 93.2 207.997 93.2C204.997 93.2 203.397 95 203.397 99.2V110H197.797ZM224.803 89.2V110H219.203V89.2H224.803ZM218.803 84.6C218.803 82.84 220.243 81.4 222.003 81.4C223.763 81.4 225.203 82.84 225.203 84.6C225.203 86.36 223.763 87.8 222.003 87.8C220.243 87.8 218.803 86.36 218.803 84.6ZM226.62 99.6C226.62 93.52 230.22 88.6 237.02 88.6C246.22 88.6 246.82 96.8 246.82 96.8H241.22C241.22 96.8 241.02 92.8 237.02 92.8C233.46 92.8 232.22 95.84 232.22 99.6C232.22 103.36 233.46 106.4 237.02 106.4C241.02 106.4 241.22 102.4 241.22 102.4H246.82C246.82 102.4 246.22 110.6 237.02 110.6C230.22 110.6 226.62 105.68 226.62 99.6ZM262.017 110V101.8H254.217V110H248.617V89.2H254.217V97.4H262.017V89.2H267.617V110H262.017ZM275.233 89.2V97.4H277.993C278.713 92.4 282.033 88.6 288.033 88.6C294.873 88.6 298.233 93.52 298.233 99.6C298.233 105.68 294.873 110.6 288.033 110.6C282.033 110.6 278.713 106.84 277.993 101.8H275.233V110H269.633V89.2H275.233ZM283.433 99.6C283.433 103.36 284.473 106.4 288.033 106.4C291.593 106.4 292.633 103.36 292.633 99.6C292.633 95.84 291.593 92.8 288.033 92.8C284.473 92.8 283.433 95.84 283.433 99.6Z" fill="white"/>
</svg>
