<svg width="281" height="122" viewBox="0 0 281 122" fill="none" xmlns="http://www.w3.org/2000/svg">
<path d="M19.8 0.639998L1.48 43.2L0 42.56L18.32 -4.76837e-07L19.8 0.639998ZM29.6047 0.639998L11.2847 43.2L9.80469 42.56L28.1247 -4.76837e-07L29.6047 0.639998ZM30.6094 15.6V11.2H49.8094V15.6L43.0094 22C43.0094 22 50.6094 22.2 50.6094 30.6C50.6094 35.2 47.4094 39.8 40.6094 39.8C32.8094 39.8 30.0094 35.2 30.0094 30.4H35.6094C35.6094 33.2 37.0094 35.6 40.6094 35.6C43.3694 35.6 45.0094 33.6 45.0094 30.8C45.0094 27.8 43.6094 25.6 38.0094 25.6H36.4094V22.4L43.4094 15.6H30.6094ZM57.8156 17.6H52.2156C52.5356 12.28 56.8156 10.6 61.6156 10.6C66.6156 10.6 70.6156 12.4 70.6156 17.8V32H65.0156V28H64.8156C64.8156 28 63.5356 32.6 58.2156 32.6C54.4156 32.6 51.6156 30.84 51.6156 27C51.6156 23.12 54.8156 21.36 58.2556 20.48C61.7356 19.6 65.0156 19.32 65.0156 17C65.0156 15.36 63.8156 14.4 61.6156 14.4C59.2156 14.4 57.8956 15.36 57.8156 17.6ZM65.0156 21.52C64.0956 22.36 62.2156 22.8 60.6156 23.2C58.8156 23.64 57.2956 24.56 57.2956 26.4C57.2956 28 58.4156 29 60.2156 29C64.0156 29 65.0156 24.6 65.0156 21.52ZM72.0016 32L79.4816 11.2H85.8016L93.2816 32H87.2816L82.4816 17.24L77.6816 32H72.0016ZM113.486 11.2V32H108.086V28.6H107.886C107.886 28.6 106.086 32.6 101.486 32.6C95.6859 32.6 94.0859 28.8 94.0859 24V11.2H99.6859V22.8C99.6859 26.4 100.686 28 103.286 28C106.286 28 107.886 26.2 107.886 22V11.2H113.486ZM133.292 11.2V22.8C133.292 26.4 134.012 28 136.212 28C138.612 28 139.892 26.2 139.892 22V11.2H145.492V32H140.092V28.6H139.892C139.892 28.6 138.492 32.6 134.292 32.6C130.932 32.6 129.172 31.04 128.332 28.6H128.092C128.092 28.6 126.292 32.6 122.092 32.6C116.892 32.6 115.492 28.8 115.492 24V11.2H121.092V22.8C121.092 26.4 121.812 28 124.012 28C126.412 28 127.692 26.2 127.692 22V11.2H133.292ZM159.684 32V20.4C159.684 16.8 158.964 15.2 156.764 15.2C154.364 15.2 153.084 17 153.084 21.2V32H147.484V11.2H152.884V14.6H153.084C153.084 14.6 154.484 10.6 158.684 10.6C162.044 10.6 163.844 12.2 164.644 14.64L164.684 14.6H164.884C164.884 14.6 166.684 10.6 170.884 10.6C176.084 10.6 177.484 14.4 177.484 19.2V32H171.884V20.4C171.884 16.8 171.164 15.2 168.964 15.2C166.564 15.2 165.284 17 165.284 21.2V32H159.684ZM179.277 21.6C179.277 15.52 182.837 10.6 189.677 10.6C196.517 10.6 199.677 15.52 199.677 21.6C199.677 22.08 199.637 22.8 199.637 22.8H184.917C185.157 26 186.517 28.4 189.877 28.4C193.277 28.4 193.877 25.2 193.877 25.2H199.477C199.477 25.2 198.277 32.6 189.677 32.6C182.677 32.6 179.277 27.68 179.277 21.6ZM189.677 14.8C186.917 14.8 185.557 16.64 185.077 19.2H193.917C193.557 16.64 192.437 14.8 189.677 14.8ZM210.878 21.6C210.878 15.52 214.478 10.6 221.278 10.6C230.478 10.6 231.078 18.8 231.078 18.8H225.478C225.478 18.8 225.278 14.8 221.278 14.8C217.718 14.8 216.478 17.84 216.478 21.6C216.478 25.36 217.718 28.4 221.278 28.4C225.278 28.4 225.478 24.4 225.478 24.4H231.078C231.078 24.4 230.478 32.6 221.278 32.6C214.478 32.6 210.878 27.68 210.878 21.6ZM232.875 32V11.2H242.875C248.275 11.2 251.075 13 251.075 16.8C251.075 20.2 247.875 21 247.875 21V21.2C247.875 21.2 251.675 22 251.675 26C251.675 30 249.075 32 243.475 32H232.875ZM242.875 23.2H238.475V28H243.275C245.075 28 246.075 27.2 246.075 25.6C246.075 24 244.875 23.2 242.875 23.2ZM238.475 19.6H242.475C244.475 19.6 245.475 18.8 245.475 17.4C245.475 16 244.675 15.2 242.875 15.2H238.475V19.6ZM258.866 11.2V32H253.266V11.2H258.866ZM252.866 6.6C252.866 4.84 254.306 3.4 256.066 3.4C257.826 3.4 259.266 4.84 259.266 6.6C259.266 8.36 257.826 9.8 256.066 9.8C254.306 9.8 252.866 8.36 252.866 6.6ZM262.883 9.2V7.6H278.283V9.2H262.883ZM280.283 11.2V32H274.883V28.6H274.683C274.683 28.6 272.883 32.6 268.283 32.6C262.483 32.6 260.883 28.8 260.883 24V11.2H266.483V22.8C266.483 26.4 267.483 28 270.083 28C273.083 28 274.683 26.2 274.683 22V11.2H280.283ZM29.8281 71V50.2H35.4281V58.6L42.8281 50.2H49.4281L41.5881 58.32L49.8281 71H42.9881L37.7081 62.32L35.4281 64.68V71H29.8281ZM54.6422 60.6C54.6422 64.36 56.0822 67.4 59.6422 67.4C63.2022 67.4 64.6422 64.36 64.6422 60.6C64.6422 56.84 63.2022 53.8 59.6422 53.8C56.0822 53.8 54.6422 56.84 54.6422 60.6ZM49.0422 60.6C49.0422 54.52 52.8022 49.6 59.6422 49.6C66.4822 49.6 70.2422 54.52 70.2422 60.6C70.2422 66.68 66.4822 71.6 59.6422 71.6C52.8022 71.6 49.0422 66.68 49.0422 60.6ZM97.2547 50.2V71H92.0547V56.4H91.8547L87.2547 71H82.0547L77.4547 56.4H77.2547V71H72.0547V50.2H80.4547L84.6547 64.6L88.8547 50.2H97.2547ZM99.0422 60.6C99.0422 54.52 102.602 49.6 109.442 49.6C116.282 49.6 119.442 54.52 119.442 60.6C119.442 61.08 119.402 61.8 119.402 61.8H104.682C104.922 65 106.282 67.4 109.642 67.4C113.042 67.4 113.642 64.2 113.642 64.2H119.242C119.242 64.2 118.042 71.6 109.442 71.6C102.442 71.6 99.0422 66.68 99.0422 60.6ZM109.442 53.8C106.682 53.8 105.322 55.64 104.842 58.2H113.682C113.322 55.64 112.202 53.8 109.442 53.8ZM134.634 71V62.8H126.834V71H121.234V50.2H126.834V58.4H134.634V50.2H140.234V71H134.634ZM154.45 71V59.4C154.45 55.8 153.73 54.2 151.53 54.2C149.13 54.2 147.85 56 147.85 60.2V71H142.25V50.2H147.65V53.6H147.85C147.85 53.6 149.25 49.6 153.45 49.6C156.81 49.6 158.61 51.2 159.41 53.64L159.45 53.6H159.65C159.65 53.6 161.45 49.6 165.65 49.6C170.85 49.6 172.25 53.4 172.25 58.2V71H166.65V59.4C166.65 55.8 165.93 54.2 163.73 54.2C161.33 54.2 160.05 56 160.05 60.2V71H154.45ZM180.042 56.6H174.442C174.762 51.28 179.042 49.6 183.842 49.6C188.842 49.6 192.842 51.4 192.842 56.8V71H187.242V67H187.042C187.042 67 185.762 71.6 180.442 71.6C176.642 71.6 173.842 69.84 173.842 66C173.842 62.12 177.042 60.36 180.482 59.48C183.962 58.6 187.242 58.32 187.242 56C187.242 54.36 186.042 53.4 183.842 53.4C181.442 53.4 180.122 54.36 180.042 56.6ZM187.242 60.52C186.322 61.36 184.442 61.8 182.842 62.2C181.042 62.64 179.522 63.56 179.522 65.4C179.522 67 180.642 68 182.442 68C186.242 68 187.242 63.6 187.242 60.52ZM194.828 78.2V50.2H200.228V53H200.428C200.428 53 202.228 49.6 206.828 49.6C212.828 49.6 215.828 54.8 215.828 60.6C215.828 66.4 212.828 71.6 206.828 71.6C202.428 71.6 200.628 68.8 200.628 68.8H200.428V78.2H194.828ZM200.228 60.6C200.228 64.36 201.828 67.4 205.228 67.4C208.628 67.4 210.228 64.36 210.228 60.6C210.228 56.84 208.628 53.8 205.228 53.8C201.828 53.8 200.228 56.84 200.228 60.6ZM33.2188 120.08L32.0988 121.2C26.2188 115.36 23.2188 107.28 23.2188 99.6C23.2188 91.92 26.2188 83.84 32.0988 78L33.2188 79.12C27.6588 84.68 24.8188 92.32 24.8188 99.6C24.8188 106.88 27.6588 114.56 33.2188 120.08ZM39.6031 99.6C39.6031 103.36 41.0431 106.4 44.6031 106.4C48.1631 106.4 49.6031 103.36 49.6031 99.6C49.6031 95.84 48.1631 92.8 44.6031 92.8C41.0431 92.8 39.6031 95.84 39.6031 99.6ZM34.0031 99.6C34.0031 93.52 37.7631 88.6 44.6031 88.6C51.4431 88.6 55.2031 93.52 55.2031 99.6C55.2031 105.68 51.4431 110.6 44.6031 110.6C37.7631 110.6 34.0031 105.68 34.0031 99.6ZM57.0156 110V89.2H62.4156V92.6H62.6156C62.6156 92.6 64.4156 88.6 69.0156 88.6C74.8156 88.6 76.4156 92.4 76.4156 97.2V110H70.8156V98.4C70.8156 94.8 69.8156 93.2 67.2156 93.2C64.2156 93.2 62.6156 95 62.6156 99.2V110H57.0156ZM100.622 102.8V115.2H99.0219V102.8H100.622ZM97.8219 89.2V110H92.4219V106.6H92.2219C92.2219 106.6 90.4219 110.6 85.8219 110.6C80.0219 110.6 78.4219 106.8 78.4219 102V89.2H84.0219V100.8C84.0219 104.4 85.0219 106 87.6219 106C90.6219 106 92.2219 104.2 92.2219 100V89.2H97.8219ZM107.616 89.2V110H102.016V89.2H107.616ZM101.616 84.6C101.616 82.84 103.056 81.4 104.816 81.4C106.576 81.4 108.016 82.84 108.016 84.6C108.016 86.36 106.576 87.8 104.816 87.8C103.056 87.8 101.616 86.36 101.616 84.6ZM115.033 99.6C115.033 103.36 116.473 106.4 120.033 106.4C123.593 106.4 125.033 103.36 125.033 99.6C125.033 95.84 123.593 92.8 120.033 92.8C116.473 92.8 115.033 95.84 115.033 99.6ZM109.433 99.6C109.433 93.52 113.193 88.6 120.033 88.6C126.873 88.6 130.633 93.52 130.633 99.6C130.633 105.68 126.873 110.6 120.033 110.6C113.193 110.6 109.433 105.68 109.433 99.6ZM145.845 110V101.8H138.045V110H132.445V89.2H138.045V97.4H145.845V89.2H151.445V110H145.845ZM159.261 95.6H153.661C153.981 90.28 158.261 88.6 163.061 88.6C168.061 88.6 172.061 90.4 172.061 95.8V110H166.461V106H166.261C166.261 106 164.981 110.6 159.661 110.6C155.861 110.6 153.061 108.84 153.061 105C153.061 101.12 156.261 99.36 159.701 98.48C163.181 97.6 166.461 97.32 166.461 95C166.461 93.36 165.261 92.4 163.061 92.4C160.661 92.4 159.341 93.36 159.261 95.6ZM166.461 99.52C165.541 100.36 163.661 100.8 162.061 101.2C160.261 101.64 158.741 102.56 158.741 104.4C158.741 106 159.861 107 161.661 107C165.461 107 166.461 102.6 166.461 99.52ZM173.447 110L180.927 89.2H187.247L194.727 110H188.727L183.927 95.24L179.127 110H173.447ZM196.117 110V89.2H201.717V96.8H205.117C210.917 96.8 214.117 99.4 214.117 103.4C214.117 107.4 210.917 110 205.117 110H196.117ZM204.317 100.8H201.717V106H204.317C207.317 106 208.517 105.2 208.517 103.4C208.517 101.6 207.317 100.8 204.317 100.8ZM229.127 110V101.8H221.327V110H215.727V89.2H221.327V97.4H229.127V89.2H234.727V110H229.127ZM242.142 99.6C242.142 103.36 243.582 106.4 247.142 106.4C250.702 106.4 252.142 103.36 252.142 99.6C252.142 95.84 250.702 92.8 247.142 92.8C243.582 92.8 242.142 95.84 242.142 99.6ZM236.542 99.6C236.542 93.52 240.302 88.6 247.142 88.6C253.982 88.6 257.742 93.52 257.742 99.6C257.742 105.68 253.982 110.6 247.142 110.6C240.302 110.6 236.542 105.68 236.542 99.6ZM259.675 121.2L258.555 120.08C264.115 114.56 266.955 106.88 266.955 99.6C266.955 92.32 264.115 84.68 258.555 79.12L259.675 78C265.555 83.84 268.555 91.92 268.555 99.6C268.555 107.28 265.555 115.36 259.675 121.2Z" fill="white"/>
</svg>
