<svg width="24" height="24" viewBox="0 0 24 24" fill="none" xmlns="http://www.w3.org/2000/svg">
<path d="M3.50098 12.0135C3.50417 12.0434 3.51799 12.0711 3.54004 12.0916L3.55078 12.1024L11.0371 19.4637H11.0381L11.0479 19.4744C11.0592 19.4861 11.0729 19.4953 11.0879 19.5018C11.1032 19.5083 11.1201 19.5124 11.1367 19.5125C11.1534 19.5126 11.1701 19.5092 11.1855 19.5027C11.2009 19.4964 11.2149 19.4872 11.2266 19.4754C11.2383 19.4635 11.2478 19.4489 11.2539 19.4334C11.2601 19.4179 11.2631 19.4013 11.2627 19.3846C11.2623 19.3679 11.2588 19.351 11.252 19.3358C11.2451 19.3206 11.2349 19.3071 11.2227 19.2957L11.2129 19.2859L4.80176 12.9813L3.93066 12.1248L21.375 12.1248C21.4446 12.1248 21.5 12.0684 21.5 11.9998C21.4999 11.931 21.4438 11.8748 21.375 11.8748L3.93066 11.8748L4.80176 11.0184L11.2129 4.71368L11.2227 4.70392C11.2349 4.69254 11.2451 4.67814 11.252 4.6629C11.2586 4.64783 11.2623 4.63153 11.2627 4.61505C11.2631 4.5984 11.26 4.58172 11.2539 4.56622C11.2478 4.55069 11.2383 4.53615 11.2266 4.52423C11.2149 4.51242 11.2009 4.50327 11.1855 4.49689C11.1701 4.49047 11.1534 4.48703 11.1367 4.48712C11.1201 4.48724 11.1032 4.49032 11.0879 4.49689C11.0728 4.50341 11.0593 4.51337 11.0479 4.52521L11.0371 4.53595L3.54395 11.9051L3.54004 11.909L3.53418 11.9129C3.52181 11.9258 3.51273 11.9419 3.50684 11.9588C3.50079 11.9762 3.49903 11.9952 3.50098 12.0135Z" fill="#F0F0F0" stroke="#F0F0F0"/>
</svg>
