<svg width="64" height="64" viewBox="0 0 64 64" fill="none" xmlns="http://www.w3.org/2000/svg">
<path d="M20.8002 5.33331H43.2002C51.7335 5.33331 58.6668 12.2666 58.6668 20.8V43.2C58.6668 47.302 57.0373 51.236 54.1367 54.1366C51.2362 57.0371 47.3022 58.6666 43.2002 58.6666H20.8002C12.2668 58.6666 5.3335 51.7333 5.3335 43.2V20.8C5.3335 16.698 6.96302 12.764 9.86358 9.86339C12.7641 6.96283 16.6981 5.33331 20.8002 5.33331ZM20.2668 10.6666C17.7207 10.6666 15.279 11.6781 13.4786 13.4784C11.6783 15.2788 10.6668 17.7206 10.6668 20.2666V43.7333C10.6668 49.04 14.9602 53.3333 20.2668 53.3333H43.7335C46.2796 53.3333 48.7214 52.3219 50.5217 50.5215C52.3221 48.7212 53.3335 46.2794 53.3335 43.7333V20.2666C53.3335 14.96 49.0402 10.6666 43.7335 10.6666H20.2668ZM46.0002 14.6666C46.8842 14.6666 47.7321 15.0178 48.3572 15.643C48.9823 16.2681 49.3335 17.1159 49.3335 18C49.3335 18.884 48.9823 19.7319 48.3572 20.357C47.7321 20.9821 46.8842 21.3333 46.0002 21.3333C45.1161 21.3333 44.2683 20.9821 43.6431 20.357C43.018 19.7319 42.6668 18.884 42.6668 18C42.6668 17.1159 43.018 16.2681 43.6431 15.643C44.2683 15.0178 45.1161 14.6666 46.0002 14.6666ZM32.0002 18.6666C35.5364 18.6666 38.9278 20.0714 41.4282 22.5719C43.9287 25.0724 45.3335 28.4638 45.3335 32C45.3335 35.5362 43.9287 38.9276 41.4282 41.4281C38.9278 43.9286 35.5364 45.3333 32.0002 45.3333C28.4639 45.3333 25.0726 43.9286 22.5721 41.4281C20.0716 38.9276 18.6668 35.5362 18.6668 32C18.6668 28.4638 20.0716 25.0724 22.5721 22.5719C25.0726 20.0714 28.4639 18.6666 32.0002 18.6666ZM32.0002 24C29.8784 24 27.8436 24.8428 26.3433 26.3431C24.843 27.8434 24.0002 29.8782 24.0002 32C24.0002 34.1217 24.843 36.1565 26.3433 37.6568C27.8436 39.1571 29.8784 40 32.0002 40C34.1219 40 36.1567 39.1571 37.657 37.6568C39.1573 36.1565 40.0002 34.1217 40.0002 32C40.0002 29.8782 39.1573 27.8434 37.657 26.3431C36.1567 24.8428 34.1219 24 32.0002 24Z" fill="#E4E4E4"/>
</svg>
