<svg width="320" height="82" viewBox="0 0 320 82" fill="none" xmlns="http://www.w3.org/2000/svg">
<path d="M26.16 1.04V23.12C26.16 30.32 22.32 35.36 13.68 35.36C2.16 35.36 1.92 26.72 1.92 26.72H8.64C8.64 26.72 8.88 30.32 13.68 30.32C17.952 30.32 19.44 27.92 19.44 23.6V22.4H19.2C19.2 22.4 17.04 25.76 11.76 25.76C4.56 25.76 0.96 19.52 0.96 13.04C0.96 6.56 4.56 0.319999 11.76 0.319999C17.28 0.319999 19.44 4.4 19.44 4.4H19.68V1.04H26.16ZM19.68 13.04C19.68 9.008 17.76 5.36 13.68 5.36C9.6 5.36 7.68 9.008 7.68 13.04C7.68 17.072 9.6 20.72 13.68 20.72C17.76 20.72 19.68 17.072 19.68 13.04ZM50.895 1.04V26H44.175V16.88H39.375L35.391 26H27.855L32.943 15.68C30.063 14.336 28.575 11.984 28.575 8.96C28.575 4.16 32.415 1.04 39.375 1.04H50.895ZM40.335 12.08H44.175V5.84H40.335C36.735 5.84 35.295 6.8 35.295 8.96C35.295 11.12 36.735 12.08 40.335 12.08ZM53.2781 26V1.04H59.9981V11.12L68.8781 1.04H76.7981L67.3901 10.784L77.2781 26H69.0701L62.7341 15.584L59.9981 18.416V26H53.2781ZM102.467 1.04L93.5869 26.72C91.6189 32.432 89.0269 35.36 83.9869 35.36C81.5869 35.36 79.6669 34.64 79.6669 34.64V29.12C79.6669 29.12 81.1069 29.6 82.7869 29.6C85.1869 29.6 86.1469 28.304 87.1069 26L77.0269 1.04H84.2269L90.3229 17.504L95.2669 1.04H102.467ZM119.49 12.32V14.24H108.93C109.074 18.416 110.658 21.68 114.69 21.68C119.49 21.68 119.73 16.88 119.73 16.88H126.45C126.45 16.88 125.73 26.72 114.69 26.72C106.53 26.72 102.21 20.816 102.21 13.52C102.21 6.224 106.53 0.319999 114.69 0.319999C125.73 0.319999 126.45 10.16 126.45 10.16H119.73C119.73 10.16 119.49 5.36 114.69 5.36C110.802 5.36 109.266 8.384 108.978 12.32H119.49ZM158.846 1.04V26H152.606V8.48H152.366L146.846 26H140.606L135.086 8.48H134.846V26H128.606V1.04H138.686L143.726 18.32L148.766 1.04H158.846ZM167.711 13.52C167.711 18.032 169.439 21.68 173.711 21.68C177.983 21.68 179.711 18.032 179.711 13.52C179.711 9.008 177.983 5.36 173.711 5.36C169.439 5.36 167.711 9.008 167.711 13.52ZM160.991 13.52C160.991 6.224 165.503 0.319999 173.711 0.319999C181.919 0.319999 186.431 6.224 186.431 13.52C186.431 20.816 181.919 26.72 173.711 26.72C165.503 26.72 160.991 20.816 160.991 13.52ZM1.2 52.32V47.04H24.24V52.32L16.08 60C16.08 60 25.2 60.24 25.2 70.32C25.2 75.84 21.36 81.36 13.2 81.36C3.84 81.36 0.48 75.84 0.48 70.08H7.2C7.2 73.44 8.88 76.32 13.2 76.32C16.512 76.32 18.48 73.92 18.48 70.56C18.48 66.96 16.8 64.32 10.08 64.32H8.16V60.48L16.56 52.32H1.2ZM33.8475 54.72H27.1275C27.5115 48.336 32.6475 46.32 38.4075 46.32C44.4075 46.32 49.2075 48.48 49.2075 54.96V72H42.4875V67.2H42.2475C42.2475 67.2 40.7115 72.72 34.3275 72.72C29.7675 72.72 26.4075 70.608 26.4075 66C26.4075 61.344 30.2475 59.232 34.3755 58.176C38.5515 57.12 42.4875 56.784 42.4875 54C42.4875 52.032 41.0475 50.88 38.4075 50.88C35.5275 50.88 33.9435 52.032 33.8475 54.72ZM42.4875 59.424C41.3835 60.432 39.1275 60.96 37.2075 61.44C35.0475 61.968 33.2235 63.072 33.2235 65.28C33.2235 67.2 34.5675 68.4 36.7275 68.4C41.2875 68.4 42.4875 63.12 42.4875 59.424ZM63.1219 72V47.04H75.1219C81.6019 47.04 84.9619 49.2 84.9619 53.76C84.9619 57.84 81.1219 58.8 81.1219 58.8V59.04C81.1219 59.04 85.6819 60 85.6819 64.8C85.6819 69.6 82.5619 72 75.8419 72H63.1219ZM75.1219 61.44H69.8419V67.2H75.6019C77.7619 67.2 78.9619 66.24 78.9619 64.32C78.9619 62.4 77.5219 61.44 75.1219 61.44ZM69.8419 57.12H74.6419C77.0419 57.12 78.2419 56.16 78.2419 54.48C78.2419 52.8 77.2819 51.84 75.1219 51.84H69.8419V57.12ZM94.5506 54.72H87.8306C88.2146 48.336 93.3506 46.32 99.1106 46.32C105.111 46.32 109.911 48.48 109.911 54.96V72H103.191V67.2H102.951C102.951 67.2 101.415 72.72 95.0306 72.72C90.4706 72.72 87.1106 70.608 87.1106 66C87.1106 61.344 90.9506 59.232 95.0786 58.176C99.2546 57.12 103.191 56.784 103.191 54C103.191 52.032 101.751 50.88 99.1106 50.88C96.2306 50.88 94.6466 52.032 94.5506 54.72ZM103.191 59.424C102.087 60.432 99.8306 60.96 97.9106 61.44C95.7506 61.968 93.9266 63.072 93.9266 65.28C93.9266 67.2 95.2706 68.4 97.4306 68.4C101.991 68.4 103.191 63.12 103.191 59.424ZM133.654 47.04V60.96C133.654 65.28 134.518 67.2 137.158 67.2C140.038 67.2 141.574 65.04 141.574 60V47.04H148.294V72H141.814V67.92H141.574C141.574 67.92 139.894 72.72 134.854 72.72C130.822 72.72 128.71 70.848 127.702 67.92H127.414C127.414 67.92 125.254 72.72 120.214 72.72C113.974 72.72 112.294 68.16 112.294 62.4V47.04H119.014V60.96C119.014 65.28 119.878 67.2 122.518 67.2C125.398 67.2 126.934 65.04 126.934 60V47.04H133.654ZM175.404 47.04L166.524 72.72C164.556 78.432 161.964 81.36 156.924 81.36C154.524 81.36 152.604 80.64 152.604 80.64V75.12C152.604 75.12 154.044 75.6 155.724 75.6C158.124 75.6 159.084 74.304 160.044 72L149.964 47.04H157.164L163.26 63.504L168.204 47.04H175.404ZM188.606 72V47.04H195.086V51.12H195.326C195.326 51.12 197.486 46.32 203.006 46.32C209.966 46.32 211.886 50.88 211.886 56.64V72H205.166V58.08C205.166 53.76 203.966 51.84 200.846 51.84C197.246 51.84 195.326 54 195.326 59.04V72H188.606ZM221.014 47.04V72H214.294V47.04H221.014ZM213.814 41.52C213.814 39.408 215.542 37.68 217.654 37.68C219.766 37.68 221.494 39.408 221.494 41.52C221.494 43.632 219.766 45.36 217.654 45.36C215.542 45.36 213.814 43.632 213.814 41.52ZM223.194 59.52C223.194 52.224 227.514 46.32 235.674 46.32C246.714 46.32 247.434 56.16 247.434 56.16H240.714C240.714 56.16 240.474 51.36 235.674 51.36C231.402 51.36 229.914 55.008 229.914 59.52C229.914 64.032 231.402 67.68 235.674 67.68C240.474 67.68 240.714 62.88 240.714 62.88H247.434C247.434 62.88 246.714 72.72 235.674 72.72C227.514 72.72 223.194 66.816 223.194 59.52ZM265.671 72V62.16H256.311V72H249.591V47.04H256.311V56.88H265.671V47.04H272.391V72H265.671ZM281.529 47.04V56.88H284.841C285.705 50.88 289.689 46.32 296.889 46.32C305.097 46.32 309.129 52.224 309.129 59.52C309.129 66.816 305.097 72.72 296.889 72.72C289.689 72.72 285.705 68.208 284.841 62.16H281.529V72H274.809V47.04H281.529ZM291.369 59.52C291.369 64.032 292.617 67.68 296.889 67.68C301.161 67.68 302.409 64.032 302.409 59.52C302.409 55.008 301.161 51.36 296.889 51.36C292.617 51.36 291.369 55.008 291.369 59.52ZM311.518 68.64C311.518 66.528 313.246 64.8 315.358 64.8C317.47 64.8 319.198 66.528 319.198 68.64C319.198 70.752 317.47 72.48 315.358 72.48C313.246 72.48 311.518 70.752 311.518 68.64ZM318.718 38.4V62.4H311.998V38.4H318.718Z" fill="white"/>
</svg>
