<svg width="19" height="18" viewBox="0 0 19 18" fill="none" xmlns="http://www.w3.org/2000/svg">
<path d="M18.499 9.01349C18.4958 9.04344 18.482 9.0711 18.46 9.09161L18.4492 9.10236L10.9629 16.4637H10.9619L10.9521 16.4744C10.9408 16.4861 10.9271 16.4953 10.9121 16.5018C10.8968 16.5083 10.8799 16.5124 10.8633 16.5125C10.8466 16.5126 10.8299 16.5092 10.8145 16.5027C10.7991 16.4964 10.7851 16.4872 10.7734 16.4754C10.7617 16.4635 10.7522 16.4489 10.7461 16.4334C10.7399 16.4179 10.7369 16.4013 10.7373 16.3846C10.7377 16.3679 10.7412 16.351 10.748 16.3358C10.7549 16.3206 10.7651 16.3071 10.7773 16.2957L10.7871 16.2859L17.1982 9.98126L18.0693 9.12482L0.625 9.12482C0.555361 9.12482 0.5 9.06839 0.5 8.99982C0.500089 8.93103 0.556197 8.87482 0.625 8.87482L18.0693 8.87482L17.1982 8.01837L10.7871 1.71368L10.7773 1.70392C10.7651 1.69254 10.7549 1.67814 10.748 1.6629C10.7414 1.64783 10.7377 1.63153 10.7373 1.61505C10.7369 1.5984 10.74 1.58172 10.7461 1.56622C10.7522 1.55069 10.7617 1.53615 10.7734 1.52423C10.7851 1.51242 10.7991 1.50327 10.8145 1.49689C10.8299 1.49047 10.8466 1.48703 10.8633 1.48712C10.8799 1.48724 10.8968 1.49032 10.9121 1.49689C10.9272 1.50341 10.9407 1.51337 10.9521 1.52521L10.9629 1.53595L18.4561 8.90509L18.46 8.909L18.4658 8.9129C18.4782 8.92583 18.4873 8.9419 18.4932 8.9588C18.4992 8.9762 18.501 8.99517 18.499 9.01349Z" fill="#F0F0F0" stroke="#F0F0F0"/>
</svg>
